<?xml version="1.0" encoding="UTF-8"?>
<svg width="24px" height="24px" viewBox="0 0 24 24" version="1.1" xmlns="http://www.w3.org/2000/svg">
    <g stroke="none" stroke-width="1" fill="none" fill-rule="evenodd">
        <path d="M12,2 C6.48,2 2,6.48 2,12 C2,17.52 6.48,22 12,22 C17.52,22 22,17.52 22,12 C22,6.48 17.52,2 12,2 Z M12,20 C7.59,20 4,16.41 4,12 C4,7.59 7.59,4 12,4 C16.41,4 20,7.59 20,12 C20,16.41 16.41,20 12,20 Z" fill="#4A5568"/>
        <path d="M15.59,7 L12,10.59 L8.41,7 L7,8.41 L10.59,12 L7,15.59 L8.41,17 L12,13.41 L15.59,17 L17,15.59 L13.41,12 L17,8.41 L15.59,7 Z" fill="#4A5568"/>
    </g>
</svg> 